<svg width="40" height="40" viewBox="0 0 40 40" fill="none" xmlns="http://www.w3.org/2000/svg">
<rect width="40" height="40" rx="20" fill="#F8F8F8"/>
<path d="M18.586 20L14.3434 15.7574C13.9529 15.3668 13.9529 14.7337 14.3434 14.3431C14.7339 13.9526 15.3671 13.9526 15.7576 14.3431L20.0002 18.5858L24.2429 14.3431C24.6334 13.9526 25.2666 13.9526 25.6571 14.3431C26.0476 14.7337 26.0476 15.3668 25.6571 15.7574L21.4144 20L25.6571 24.2426C26.0476 24.6332 26.0476 25.2663 25.6571 25.6569C25.2666 26.0474 24.6334 26.0474 24.2429 25.6569L20.0002 21.4142L15.7576 25.6569C15.3671 26.0474 14.7339 26.0474 14.3434 25.6569C13.9529 25.2663 13.9529 24.6332 14.3434 24.2426L18.586 20Z" fill="#333333"/>
</svg>
