<svg width="20" height="20" viewBox="0 0 20 20" fill="none" xmlns="http://www.w3.org/2000/svg">
<path d="M18.261 5.36598C18.0266 5.13164 17.7087 5 17.3772 5C17.0458 5 16.7279 5.13164 16.4935 5.36598L10.306 11.5535L4.11847 5.36598C3.88272 5.13829 3.56696 5.01229 3.23922 5.01514C2.91147 5.01799 2.59796 5.14945 2.3662 5.38121C2.13444 5.61297 2.00298 5.92648 2.00013 6.25423C1.99728 6.58198 2.12327 6.89773 2.35097 7.13348L9.42222 14.2047C9.65663 14.4391 9.97451 14.5707 10.306 14.5707C10.6374 14.5707 10.9553 14.4391 11.1897 14.2047L18.261 7.13348C18.4953 6.89907 18.627 6.58119 18.627 6.24973C18.627 5.91828 18.4953 5.60039 18.261 5.36598Z" fill="#333333"/>
</svg>
