<svg width="35" height="23" viewBox="0 0 35 23" fill="none" xmlns="http://www.w3.org/2000/svg">
<g clip-path="url(#clip0_509_1196)">
<path d="M0.5 0.727539H34.5V22.2174H0.5V0.727539Z" fill="#012169" stroke="white"/>
<path d="M35 0.227539V3.03877L22.0117 11.4725L35 19.6865V22.7174H30.4199L17.3633 14.4594L4.64844 22.7174H0V19.7305L12.7148 11.5164L0 3.47802V0.227539H4.23828L17.3633 8.48553L30.0781 0.227539H35Z" fill="white"/>
<path d="M12.5781 14.4594L13.3301 15.9529L2.87109 22.7174H0V22.5856L12.5781 14.4594ZM21.0547 13.9323L24.7461 14.2837L35 20.7407V22.7174L21.0547 13.9323ZM35 0.227539L21.875 8.83693L21.6016 6.90421L31.8555 0.227539H35ZM0 0.271465L13.1934 8.57338L9.16016 8.22198L0 2.37989V0.271465Z" fill="#C8102E"/>
<path d="M12.0312 0.227539V22.7174H22.9688V0.227539H12.0312ZM0 7.95842V14.9865H35V7.95842H0Z" fill="white"/>
<path d="M0 9.36404V13.5809H35V9.36404H0ZM14.2188 0.227539V22.7174H20.7812V0.227539H14.2188Z" fill="#C8102E"/>
</g>
<defs>
<clipPath id="clip0_509_1196">
<rect width="35" height="22.4898" fill="white" transform="translate(0 0.227539)"/>
</clipPath>
</defs>
</svg>
