<svg width="24" height="24" viewBox="0 0 24 24" fill="none" xmlns="http://www.w3.org/2000/svg">
<g clip-path="url(#clip0_36_190)">
<path d="M9.20456 14.8332C11.3572 16.97 13.8488 19.0113 14.827 18.0257C16.2276 16.6148 17.0897 15.3873 20.1977 17.866C23.3057 20.3458 20.932 22.0147 19.5755 23.3818C18.0101 24.959 12.147 23.4923 6.3354 17.7248C0.524152 11.9561 -0.987325 6.10441 0.579216 4.52642C1.93614 3.15925 3.58725 0.77381 6.08872 3.86369C8.5914 6.952 7.37051 7.82354 5.96991 9.23478C4.99218 10.22 7.05158 12.6959 9.20456 14.8332ZM12.326 4.63892C12.326 4.63892 11.6766 4.53747 11.2219 4.9925C10.7539 5.46054 10.7334 6.26683 11.2267 6.75963C11.5181 7.05108 11.9291 7.1132 11.9291 7.1132C12.7303 7.26347 13.9378 7.51791 15.2228 8.80248C16.5073 10.087 16.7618 11.2945 16.912 12.0961C16.912 12.0961 16.9742 12.5071 17.2656 12.7985C17.7585 13.2914 18.5647 13.2713 19.0328 12.8033C19.4874 12.3487 19.3863 11.6993 19.3863 11.6993C19.1319 10.0765 18.3453 8.38129 16.9946 7.03067C15.6436 5.68004 13.9483 4.89376 12.326 4.63892ZM18.4172 5.60803C20.7723 7.96322 21.7765 10.6362 21.4496 12.8021C21.4496 12.8021 21.3355 13.4881 21.7835 13.936C22.2878 14.4403 23.0869 14.4112 23.5589 13.9396C23.8622 13.6364 23.9282 13.1427 23.9282 13.1427C24.1984 11.271 23.8586 7.50542 20.189 3.83621C16.5194 0.166951 12.7543 -0.17286 10.8824 0.0969646C10.8824 0.0969646 10.3892 0.162671 10.0856 0.466274C9.61361 0.938249 9.58492 1.73748 10.0891 2.24168C10.5371 2.68971 11.223 2.57559 11.223 2.57559C13.3891 2.24873 16.062 3.2529 18.4172 5.60803Z" fill="white"/>
</g>
<defs>
<clipPath id="clip0_36_190">
<rect width="24" height="24" fill="white"/>
</clipPath>
</defs>
</svg>
