<svg width="24" height="24" viewBox="0 0 24 24" fill="none" xmlns="http://www.w3.org/2000/svg">
<g clip-path="url(#clip0_36_188)">
<path d="M11.6821 7.51079L4.00001 13.8379V20.6666C4.00001 20.8434 4.07025 21.013 4.19527 21.138C4.32029 21.2631 4.48986 21.3333 4.66667 21.3333L9.33583 21.3212C9.51207 21.3203 9.68078 21.2497 9.80508 21.1248C9.92939 20.9998 9.99917 20.8308 9.99917 20.6545V16.6666C9.99917 16.4898 10.0694 16.3202 10.1944 16.1952C10.3195 16.0702 10.489 16 10.6658 16H13.3325C13.5093 16 13.6789 16.0702 13.8039 16.1952C13.9289 16.3202 13.9992 16.4898 13.9992 16.6666V20.6516C13.9989 20.7394 14.0159 20.8263 14.0493 20.9074C14.0827 20.9885 14.1318 21.0623 14.1937 21.1244C14.2556 21.1865 14.3292 21.2358 14.4102 21.2694C14.4912 21.3031 14.5781 21.3204 14.6658 21.3204L19.3333 21.3333C19.5101 21.3333 19.6797 21.2631 19.8047 21.138C19.9297 21.013 20 20.8434 20 20.6666V13.8333L12.3196 7.51079C12.2293 7.43801 12.1168 7.39832 12.0008 7.39832C11.8849 7.39832 11.7724 7.43801 11.6821 7.51079ZM23.8166 11.8112L20.3333 8.93996V3.1687C20.3333 3.03609 20.2806 2.90892 20.1869 2.81515C20.0931 2.72138 19.9659 2.6687 19.8333 2.6687H17.5C17.3674 2.6687 17.2402 2.72138 17.1464 2.81515C17.0527 2.90892 17 3.03609 17 3.1687V6.19412L13.2696 3.12495C12.9116 2.83036 12.4624 2.66929 11.9987 2.66929C11.5351 2.66929 11.0859 2.83036 10.7279 3.12495L0.180847 11.8112C0.130217 11.8531 0.0883286 11.9045 0.0575753 11.9625C0.0268221 12.0206 0.00780662 12.0841 0.00161554 12.1495C-0.00457553 12.2149 0.00217909 12.2808 0.0214935 12.3436C0.0408078 12.4064 0.0723034 12.4648 0.114181 12.5154L1.17668 13.807C1.21844 13.8578 1.26981 13.8999 1.32784 13.9308C1.38588 13.9617 1.44944 13.9808 1.51488 13.9871C1.58033 13.9935 1.64638 13.9868 1.70924 13.9675C1.77211 13.9483 1.83057 13.9168 1.88126 13.875L11.6821 5.80245C11.7724 5.72967 11.8849 5.68998 12.0008 5.68998C12.1168 5.68998 12.2293 5.72967 12.3196 5.80245L22.1208 13.875C22.1714 13.9168 22.2298 13.9483 22.2926 13.9676C22.3553 13.987 22.4213 13.9937 22.4867 13.9875C22.5521 13.9813 22.6156 13.9623 22.6737 13.9316C22.7317 13.9008 22.7831 13.8589 22.825 13.8083L23.8875 12.5166C23.9293 12.4657 23.9607 12.4071 23.9798 12.344C23.9988 12.281 24.0053 12.2147 23.9987 12.1492C23.9921 12.0836 23.9726 12.02 23.9414 11.962C23.9102 11.904 23.8678 11.8528 23.8166 11.8112Z" fill="white"/>
</g>
<defs>
<clipPath id="clip0_36_188">
<rect width="24" height="24" fill="white"/>
</clipPath>
</defs>
</svg>
