<svg width="24" height="24" viewBox="0 0 24 24" fill="none" xmlns="http://www.w3.org/2000/svg">
<path d="M21.6522 3.39136H2.34781C1.13216 3.39136 0.130437 4.32005 0.010437 5.50439L10.3931 15.887C11.2279 16.7218 12.7252 16.7687 13.6592 15.8348L23.9896 5.50439C23.8695 4.32005 22.8678 3.39136 21.6522 3.39136Z" fill="white"/>
<path d="M14.7656 16.9413C14.0258 17.6816 13.0384 18.0892 11.9858 18.0892C10.9662 18.0892 9.98236 17.6903 9.28636 16.9937L0 7.70786V18.2609C0 19.5549 1.05394 20.6087 2.34783 20.6087H21.6522C22.9461 20.6087 24 19.5549 24 18.2609V7.70776L14.7656 16.9413Z" fill="white"/>
</svg>
