<svg width="24" height="24" viewBox="0 0 24 24" fill="none" xmlns="http://www.w3.org/2000/svg">
<g clip-path="url(#clip0_504_490)">
<path d="M11.9997 0C5.37253 0 0 5.37269 0 11.9999C0 18.6269 5.37253 24 11.9997 24C18.6269 24 23.9998 18.6269 23.9998 11.9999C23.9998 5.37253 18.6269 0 11.9997 0ZM12.0363 17.6612V17.6611H11.963H6.83719C6.83719 13.9125 10.1294 13.9134 10.8599 12.9332L10.9436 12.4863C9.91714 11.9661 9.19257 10.712 9.19257 9.24529C9.19257 7.31295 10.4495 5.74622 11.9997 5.74622C13.5499 5.74622 14.8069 7.31295 14.8069 9.24529C14.8069 10.6995 14.0952 11.9458 13.0825 12.4742L13.1777 12.9821C13.9792 13.9148 17.1619 13.9756 17.1619 17.6612H12.0363Z" fill="#333333"/>
</g>
<defs>
<clipPath id="clip0_504_490">
<rect width="24" height="24" fill="white"/>
</clipPath>
</defs>
</svg>
