<svg width="18" height="18" viewBox="0 0 18 18" fill="none" xmlns="http://www.w3.org/2000/svg">
<path d="M6.66988 8.89985C6.10073 8.07614 5.76216 7.08228 5.6923 6.99785C6.52588 6.41671 8.15616 5.68643 8.24745 4.63857C8.36359 3.28471 6.06987 0.454425 5.63016 0.428711C4.42673 0.441568 2.2243 2.47814 1.9633 3.09357C1.47816 4.366 1.71859 5.55014 2.55259 7.26443C3.61459 9.81443 7.55916 14.6517 9.81559 16.1701C11.3087 17.3161 12.3994 17.7661 13.7019 17.4944C14.3074 17.3796 16.4944 15.5851 16.7134 14.3719C16.767 13.9219 14.2247 10.9386 12.9099 10.8203C11.889 10.726 10.9102 12.2543 10.2086 13.0013C10.1387 12.9121 9.54045 12.4454 8.89845 11.7066C8.06273 10.8284 7.28616 9.79685 6.66988 8.89985Z" fill="#EA030D"/>
</svg>
