<svg width="60" height="60" viewBox="0 0 60 60" fill="none" xmlns="http://www.w3.org/2000/svg">
<path fill-rule="evenodd" clip-rule="evenodd" d="M30.0008 16.5715C34.425 8.89313 45.389 7.99701 50.9533 15.1689L51.7268 16.1657C56.4328 22.2311 55.7533 30.8808 50.1578 36.1371L32.7325 52.5063C32.472 52.7511 32.1875 53.0186 31.919 53.2253C31.6103 53.4631 31.1788 53.7383 30.6025 53.8513C30.2053 53.9293 29.7965 53.9293 29.399 53.8513C28.8228 53.7383 28.3913 53.4631 28.0825 53.2253C27.8143 53.0188 27.5298 52.7513 27.2695 52.5066L9.84372 36.1371C4.2484 30.8808 3.56892 22.2311 8.27487 16.1657L9.04825 15.1689C14.6126 7.99701 25.5765 8.89313 30.0008 16.5715ZM40.0215 27.6286C40.783 26.9268 40.8313 25.7406 40.1295 24.9792C39.4278 24.2177 38.2415 24.1693 37.48 24.8711L27.83 33.7651L23.799 29.8971C23.0518 29.1801 21.8648 29.2046 21.1479 29.9518C20.4309 30.6988 20.4554 31.8858 21.2026 32.6028L26.5058 37.6916C27.2208 38.3776 28.3463 38.3891 29.0748 37.7176L40.0215 27.6286Z" fill="#28A745"/>
</svg>
