<svg width="28" height="29" viewBox="0 0 28 29" fill="none" xmlns="http://www.w3.org/2000/svg">
<path d="M13.7197 5.29736C12.8444 5.29772 11.9778 5.47094 11.1696 5.80709C10.3615 6.14323 9.62763 6.63567 9.01028 7.25615C8.39292 7.87663 7.90418 8.61293 7.57212 9.42278C7.24006 10.2326 7.07121 11.1001 7.07527 11.9754C7.07527 16.5898 11.8353 20.8206 13.2997 21.9406C13.4226 22.0421 13.577 22.0976 13.7365 22.0976C13.8959 22.0976 14.0503 22.0421 14.1733 21.9406C15.6405 20.787 20.3613 16.5898 20.3613 11.9754C20.3653 11.1003 20.1966 10.2331 19.8647 9.42342C19.5328 8.61376 19.0443 7.87759 18.4272 7.25714C17.8102 6.6367 17.0767 6.1442 16.2689 5.80789C15.461 5.47159 14.5947 5.29809 13.7197 5.29736ZM13.7197 14.7362C13.1659 14.7362 12.6245 14.5719 12.1641 14.2643C11.7036 13.9566 11.3447 13.5193 11.1328 13.0077C10.9209 12.496 10.8654 11.9331 10.9735 11.3899C11.0815 10.8468 11.3482 10.3479 11.7398 9.95626C12.1314 9.56468 12.6303 9.298 13.1734 9.18996C13.7166 9.08193 14.2795 9.13738 14.7912 9.3493C15.3028 9.56123 15.7401 9.92011 16.0478 10.3806C16.3554 10.841 16.5197 11.3824 16.5197 11.9362C16.5197 12.6788 16.2247 13.391 15.6996 13.9161C15.1745 14.4412 14.4623 14.7362 13.7197 14.7362Z" fill="#333333"/>
<path d="M12.1787 20.802C12.1787 20.9487 12.0536 21.0662 11.8972 21.0662H10.8408C10.6844 21.0662 10.5593 20.9487 10.5593 20.802V19.8104C10.5593 19.6636 10.6844 19.5462 10.8408 19.5462H11.8972C12.0536 19.5462 12.1787 19.6636 12.1787 19.8104V20.802ZM14.3853 19.8137C14.3853 19.6669 14.2602 19.5495 14.1038 19.5495H13.0474C12.891 19.5495 12.7659 19.6669 12.7659 19.8137V20.8052C12.7659 20.952 12.891 21.0694 13.0474 21.0694H14.1038C14.2602 21.0694 14.3853 20.952 14.3853 20.8052V19.8137ZM16.592 19.8137C16.592 19.6669 16.4669 19.5495 16.3105 19.5495H15.2541C15.0977 19.5495 14.9726 19.6669 14.9726 19.8137V20.8052C14.9726 20.952 15.0977 21.0694 15.2541 21.0694H16.3105C16.4669 21.0694 16.592 20.952 16.592 20.8052V19.8137ZM12.1787 21.8294C12.1787 21.6826 12.0536 21.5652 11.8972 21.5652H10.8408C10.6844 21.5652 10.5593 21.6826 10.5593 21.8294V22.821C10.5593 22.9678 10.6844 23.0852 10.8408 23.0852H11.8972C12.0536 23.0852 12.1787 22.9678 12.1787 22.821V21.8294ZM14.3853 21.8294C14.3853 21.6826 14.2602 21.5652 14.1038 21.5652H13.0474C12.891 21.5652 12.7659 21.6826 12.7659 21.8294V22.821C12.7659 22.9678 12.891 23.0852 13.0474 23.0852H14.1038C14.2602 23.0852 14.3853 22.9678 14.3853 22.821V21.8294ZM16.3105 21.5652H15.2541C15.0977 21.5652 14.9726 21.6826 14.9726 21.8294V22.821C14.9726 22.9678 15.0977 23.0852 15.2541 23.0852H16.3105C16.4669 23.0852 16.592 22.9678 16.592 22.821V21.8294C16.592 21.6826 16.4669 21.5652 16.3105 21.5652ZM9.68704 23.581H8.6341C8.47772 23.581 8.35262 23.6984 8.35262 23.8452V24.8367C8.35262 24.9835 8.47772 25.1009 8.6341 25.1009H9.69051C9.84689 25.1009 9.97199 24.9835 9.97199 24.8367V23.8452C9.97199 23.6984 9.84342 23.581 9.68704 23.581ZM9.97199 21.8294C9.97199 21.6826 9.84689 21.5652 9.69051 21.5652H8.6341C8.47772 21.5652 8.35262 21.6826 8.35262 21.8294V22.821C8.35262 22.9678 8.47772 23.0852 8.6341 23.0852H9.69051C9.84689 23.0852 9.97199 22.9678 9.97199 22.821V21.8294ZM14.1038 23.581H13.0474C12.891 23.581 12.7659 23.6984 12.7659 23.8452V24.8367C12.7659 24.9835 12.891 25.1009 13.0474 25.1009H14.1038C14.2602 25.1009 14.3853 24.9835 14.3853 24.8367V23.8452C14.3853 23.6984 14.2602 23.581 14.1038 23.581ZM11.8972 23.581H10.8408C10.6844 23.581 10.5593 23.6984 10.5593 23.8452V24.8367C10.5593 24.9835 10.6844 25.1009 10.8408 25.1009H11.8972C12.0536 25.1009 12.1787 24.9835 12.1787 24.8367V23.8452C12.1787 23.6984 12.0536 23.581 11.8972 23.581ZM18.5172 21.0694C18.6735 21.0694 18.7986 20.952 18.7986 20.8052V19.8137C18.7986 19.6669 18.6735 19.5495 18.5172 19.5495H17.4608C17.3044 19.5495 17.1793 19.6669 17.1793 19.8137V20.8052C17.1793 20.952 17.3044 21.0694 17.4608 21.0694H18.5172ZM7.6576 27.2537H15.6746C15.546 26.8753 15.473 26.4709 15.4695 26.0534H7.6576C7.4491 26.0534 7.2823 25.8935 7.2823 25.7011V18.6133H19.8516V21.911C20.2964 21.9142 20.7273 21.9762 21.1304 22.0969V16.1312C21.1304 15.2733 20.3868 14.5753 19.4728 14.5753H17.6171V13.6164C17.6171 13.3032 17.3461 13.0488 17.0125 13.0488H16.0707C15.7371 13.0488 15.4661 13.3032 15.4661 13.6164V14.5786H11.6643V13.6164C11.6643 13.3032 11.3933 13.0488 11.0597 13.0488H10.1179C9.78434 13.0488 9.51329 13.3032 9.51329 13.6164V14.5786H7.6576C6.74366 14.5786 6 15.2766 6 16.1344V25.7011C6 26.5557 6.74366 27.2537 7.6576 27.2537ZM23 26.0077C23 27.6483 21.5822 28.9791 19.8342 28.9791C18.0863 28.9791 16.6684 27.6483 16.6684 26.0077C16.6684 24.367 18.0863 23.0363 19.8342 23.0363C21.5822 23.0363 23 24.367 23 26.0077ZM21.4327 25.2379C21.4327 25.1433 21.3945 25.052 21.3215 24.9868C21.1721 24.8465 20.9323 24.8465 20.7829 24.9868L19.4068 26.2784L18.8786 25.7826C18.7291 25.6424 18.4894 25.6424 18.3399 25.7826C18.267 25.8511 18.2287 25.9392 18.2287 26.0338C18.2287 26.1284 18.267 26.2197 18.3399 26.2849L19.1357 27.0319C19.2852 27.1721 19.5249 27.1721 19.6744 27.0319L21.3181 25.4891C21.3945 25.4238 21.4327 25.3325 21.4327 25.2379Z" fill="#333333"/>
</svg>
