<svg width="20" height="20" viewBox="0 0 20 20" fill="none" xmlns="http://www.w3.org/2000/svg">
<path d="M13.384 17.9548C13.6184 17.7204 13.75 17.4025 13.75 17.0711C13.75 16.7396 13.6184 16.4217 13.384 16.1873L7.19652 9.99982L13.384 3.81232C13.6117 3.57656 13.7377 3.26081 13.7349 2.93307C13.732 2.60532 13.6006 2.2918 13.3688 2.06004C13.137 1.82828 12.8235 1.69682 12.4958 1.69398C12.168 1.69113 11.8523 1.81712 11.6165 2.04482L4.54527 9.11607C4.31093 9.35048 4.17928 9.66836 4.17928 9.99982C4.17928 10.3313 4.31093 10.6492 4.54527 10.8836L11.6165 17.9548C11.8509 18.1892 12.1688 18.3208 12.5003 18.3208C12.8317 18.3208 13.1496 18.1892 13.384 17.9548Z" fill="#333333"/>
</svg>
