<svg width="20" height="20" viewBox="0 0 20 20" fill="none" xmlns="http://www.w3.org/2000/svg">
<path d="M1.73903 14.634C1.97344 14.8684 2.29132 15 2.62278 15C2.95424 15 3.27212 14.8684 3.50653 14.634L9.69403 8.44652L15.8815 14.634C16.1173 14.8617 16.433 14.9877 16.7608 14.9849C17.0885 14.982 17.402 14.8506 17.6338 14.6188C17.8656 14.387 17.997 14.0735 17.9999 13.7458C18.0027 13.418 17.8767 13.1023 17.649 12.8665L10.5778 5.79527C10.3434 5.56093 10.0255 5.42928 9.69403 5.42928C9.36257 5.42928 9.04469 5.56093 8.81028 5.79527L1.73903 12.8665C1.50469 13.1009 1.37305 13.4188 1.37305 13.7503C1.37305 14.0817 1.50469 14.3996 1.73903 14.634Z" fill="#333333"/>
</svg>
